<svg xmlns="http://www.w3.org/2000/svg" id="canvas" viewBox="294.259 383.168 1185.264 145.768"><path d="M 298.10,387.00 C 297.47 387.99, 297.24 389.10, 297.26 391.66 C 297.28 394.21, 297.78 395.76, 298.21 399.78 C 298.65 403.79, 298.98 406.48, 299.44 411.72 C 299.89 416.97, 300.20 420.10, 300.49 426.00 C 300.78 431.90, 300.81 435.15, 300.88 441.23 C 300.96 447.30, 300.89 450.56, 300.87 456.38 C 300.84 462.20, 300.83 465.24, 300.75 470.32 C 300.68 475.40, 300.49 477.91, 300.50 481.79 C 300.50 485.67, 300.23 487.47, 300.77 489.71 C 301.31 491.94, 302.08 492.65, 303.20 492.97 C 304.32 493.29, 305.30 492.88, 306.38 491.29 C 307.47 489.71, 307.82 488.27, 308.63 485.06 C 309.45 481.85, 309.38 479.42, 310.46 475.25 C 311.55 471.08, 312.27 468.49, 314.07 464.20 C 315.87 459.91, 317.06 457.61, 319.49 453.79 C 321.92 449.98, 323.42 448.06, 326.23 445.14 C 329.03 442.22, 330.66 440.97, 333.51 439.21 C 336.37 437.44, 337.88 436.89, 340.50 436.31 C 343.11 435.73, 344.30 435.79, 346.59 436.31 C 348.88 436.83, 349.88 437.29, 351.94 438.93 C 353.99 440.58, 355.08 441.82, 356.87 444.56 C 358.66 447.30, 359.53 449.14, 360.91 452.63 C 362.28 456.12, 362.84 458.23, 363.75 462.00 C 364.66 465.77, 364.95 467.86, 365.46 471.48 C 365.98 475.11, 365.84 477.06, 366.33 480.13 C 366.81 483.20, 367.11 484.67, 367.88 486.83 C 368.65 488.99, 369.32 490.19, 370.16 490.92 C 371.00 491.64, 371.66 491.44, 372.08 490.44 C 372.49 489.45, 372.35 488.16, 372.23 485.94 C 372.11 483.73, 371.91 482.39, 371.46 479.35 C 371.02 476.31, 370.69 474.42, 370.01 470.74 C 369.33 467.06, 369.04 464.90, 368.08 460.95 C 367.12 457.00, 366.63 454.79, 365.21 450.98 C 363.79 447.18, 363.01 445.13, 360.99 441.92 C 358.97 438.70, 357.79 437.04, 355.12 434.93 C 352.45 432.83, 350.79 432.04, 347.64 431.40 C 344.50 430.76, 342.67 430.88, 339.39 431.73 C 336.10 432.58, 334.41 433.50, 331.21 435.65 C 328.01 437.80, 326.38 439.26, 323.41 442.49 C 320.44 445.71, 318.93 447.76, 316.34 451.77 C 313.75 455.79, 312.54 458.16, 310.44 462.57 C 308.34 466.97, 307.39 469.58, 305.84 473.79 C 304.29 478.01, 303.39 480.37, 302.68 483.66 C 301.96 486.94, 302.05 488.50, 302.28 490.22 C 302.50 491.94, 303.26 492.45, 303.79 492.27 C 304.33 492.09, 304.81 491.44, 304.95 489.32 C 305.10 487.21, 304.70 485.49, 304.51 481.69 C 304.32 477.89, 304.14 475.36, 304.00 470.30 C 303.86 465.24, 303.85 462.20, 303.81 456.38 C 303.77 450.56, 303.83 447.30, 303.80 441.20 C 303.77 435.10, 303.78 431.83, 303.66 425.89 C 303.55 419.95, 303.37 416.80, 303.22 411.50 C 303.07 406.21, 303.09 403.50, 302.92 399.43 C 302.75 395.35, 302.88 393.67, 302.38 391.13 C 301.87 388.59, 301.27 387.54, 300.41 386.71 C 299.56 385.89, 298.73 386.01, 298.10 387.00" style="stroke: black; fill: black;"/><path d="M 395.96,479.11 C 396.62 479.63, 397.11 479.80, 398.51 479.70 C 399.91 479.59, 400.93 479.47, 402.97 478.58 C 405.01 477.69, 406.35 477.00, 408.70 475.26 C 411.06 473.52, 412.31 472.16, 414.75 469.88 C 417.19 467.60, 418.61 466.31, 420.88 463.87 C 423.15 461.42, 424.45 460.18, 426.08 457.66 C 427.71 455.14, 428.35 453.71, 429.02 451.26 C 429.69 448.82, 429.83 447.60, 429.41 445.42 C 429.00 443.25, 428.53 442.03, 426.95 440.38 C 425.37 438.74, 424.13 437.80, 421.50 437.20 C 418.87 436.60, 417.08 436.61, 413.81 437.39 C 410.53 438.17, 408.64 439.12, 405.11 441.10 C 401.57 443.08, 399.49 444.41, 396.14 447.28 C 392.79 450.16, 390.98 452.01, 388.35 455.46 C 385.72 458.91, 384.43 460.87, 382.99 464.54 C 381.55 468.22, 381.00 470.26, 381.14 473.83 C 381.29 477.40, 381.87 479.40, 383.70 482.40 C 385.52 485.41, 387.06 486.75, 390.26 488.85 C 393.47 490.94, 395.56 491.74, 399.73 492.87 C 403.90 494.00, 406.38 494.28, 411.11 494.50 C 415.84 494.71, 418.43 494.56, 423.38 493.94 C 428.33 493.33, 431.33 492.60, 435.86 491.41 C 440.39 490.22, 442.73 489.46, 446.01 488.00 C 449.30 486.53, 451.21 485.24, 452.28 484.07 C 453.35 482.90, 452.92 482.10, 451.38 482.15 C 449.84 482.21, 447.89 483.24, 444.59 484.34 C 441.28 485.44, 439.19 486.47, 434.86 487.65 C 430.52 488.84, 427.62 489.66, 422.91 490.26 C 418.21 490.85, 415.73 490.92, 411.33 490.62 C 406.92 490.33, 404.61 489.90, 400.90 488.78 C 397.19 487.66, 395.42 486.80, 392.78 485.03 C 390.14 483.27, 389.11 482.23, 387.69 479.95 C 386.28 477.67, 385.83 476.40, 385.70 473.63 C 385.57 470.87, 385.84 469.24, 387.04 466.13 C 388.25 463.01, 389.35 461.14, 391.73 458.06 C 394.12 454.97, 395.84 453.21, 398.97 450.71 C 402.11 448.20, 404.16 447.04, 407.39 445.55 C 410.62 444.05, 412.48 443.77, 415.12 443.21 C 417.76 442.66, 418.86 442.63, 420.58 442.75 C 422.31 442.87, 422.86 443.14, 423.73 443.80 C 424.61 444.47, 424.87 444.93, 424.95 446.09 C 425.04 447.24, 424.90 447.92, 424.14 449.57 C 423.39 451.22, 422.67 452.26, 421.18 454.34 C 419.70 456.42, 418.79 457.79, 416.72 459.97 C 414.65 462.16, 413.25 463.41, 410.83 465.27 C 408.40 467.14, 406.82 467.86, 404.58 469.31 C 402.33 470.75, 401.22 471.36, 399.59 472.51 C 397.97 473.67, 397.32 474.16, 396.44 475.07 C 395.56 475.98, 395.30 476.27, 395.20 477.08 C 395.11 477.89, 395.30 478.58, 395.96 479.11" style="stroke: black; fill: black;"/><path d="M 464.63,389.54 C 464.05 390.31, 463.85 390.94, 463.85 392.99 C 463.85 395.04, 464.06 396.33, 464.62 399.78 C 465.19 403.24, 465.88 405.53, 466.68 410.28 C 467.49 415.03, 467.94 418.00, 468.64 423.52 C 469.34 429.05, 469.62 432.17, 470.17 437.90 C 470.73 443.63, 470.92 446.68, 471.39 452.19 C 471.86 457.70, 472.08 460.54, 472.52 465.46 C 472.97 470.39, 473.16 472.80, 473.62 476.79 C 474.08 480.79, 474.06 482.86, 474.83 485.46 C 475.60 488.05, 476.37 488.68, 477.45 489.78 C 478.53 490.87, 479.37 490.92, 480.24 490.95 C 481.11 490.98, 481.65 490.39, 481.80 489.95 C 481.96 489.51, 481.28 488.93, 481.03 488.75 C 480.79 488.57, 480.73 489.20, 480.57 489.05 C 480.41 488.91, 480.46 488.98, 480.24 488.02 C 480.02 487.06, 480.01 486.60, 479.48 484.23 C 478.94 481.87, 478.29 480.02, 477.56 476.20 C 476.83 472.37, 476.46 469.96, 475.84 465.10 C 475.22 460.25, 474.98 457.41, 474.47 451.92 C 473.96 446.42, 473.76 443.37, 473.28 437.62 C 472.80 431.87, 472.55 428.73, 472.07 423.16 C 471.59 417.59, 471.28 414.58, 470.88 409.75 C 470.48 404.92, 470.48 402.52, 470.06 399.01 C 469.63 395.50, 469.41 394.16, 468.75 392.19 C 468.10 390.21, 467.59 389.67, 466.76 389.14 C 465.94 388.61, 465.22 388.77, 464.63 389.54" style="stroke: black; fill: black;"/><path d="M 491.02,390.51 C 490.43 391.40, 490.25 392.22, 490.28 394.59 C 490.30 396.96, 490.63 398.52, 491.15 402.36 C 491.68 406.20, 492.30 408.79, 492.90 413.78 C 493.51 418.77, 493.72 421.76, 494.17 427.33 C 494.61 432.90, 494.74 436.00, 495.13 441.62 C 495.51 447.25, 495.64 450.21, 496.11 455.46 C 496.58 460.72, 496.79 463.36, 497.48 467.90 C 498.17 472.44, 498.54 474.51, 499.55 478.17 C 500.56 481.82, 501.02 483.59, 502.54 486.17 C 504.06 488.74, 505.35 489.71, 507.15 491.05 C 508.95 492.39, 510.06 492.59, 511.53 492.87 C 513.01 493.15, 513.86 492.87, 514.51 492.43 C 515.17 491.99, 515.14 491.29, 514.81 490.68 C 514.48 490.07, 513.81 490.05, 512.88 489.40 C 511.95 488.74, 511.39 488.58, 510.17 487.42 C 508.95 486.25, 508.13 485.66, 506.79 483.56 C 505.45 481.47, 504.64 480.18, 503.47 476.93 C 502.30 473.68, 501.78 471.66, 500.95 467.31 C 500.11 462.95, 499.84 460.33, 499.30 455.16 C 498.76 449.98, 498.61 447.03, 498.26 441.42 C 497.91 435.81, 497.80 432.71, 497.53 427.11 C 497.26 421.52, 497.18 418.49, 496.90 413.43 C 496.63 408.37, 496.46 405.72, 496.15 401.82 C 495.84 397.92, 495.92 396.27, 495.34 393.93 C 494.75 391.59, 494.08 390.81, 493.22 390.12 C 492.35 389.44, 491.61 389.61, 491.02 390.51" style="stroke: black; fill: black;"/><path d="M 565.24,446.78 C 565.29 445.76, 564.98 444.71, 563.78 443.43 C 562.57 442.15, 561.56 441.24, 559.20 440.37 C 556.84 439.50, 555.07 438.88, 551.97 439.08 C 548.87 439.27, 547.01 439.95, 543.69 441.34 C 540.37 442.73, 538.54 443.77, 535.37 446.04 C 532.20 448.31, 530.43 449.74, 527.84 452.69 C 525.25 455.64, 523.89 457.44, 522.40 460.81 C 520.91 464.17, 520.28 466.14, 520.39 469.51 C 520.50 472.89, 521.08 474.90, 522.95 477.69 C 524.83 480.48, 526.49 481.74, 529.76 483.44 C 533.02 485.14, 535.15 485.63, 539.27 486.19 C 543.38 486.76, 545.87 486.73, 550.32 486.28 C 554.77 485.82, 557.30 485.25, 561.50 483.92 C 565.71 482.59, 567.83 481.69, 571.36 479.64 C 574.88 477.59, 576.61 476.35, 579.14 473.66 C 581.66 470.98, 582.80 469.33, 583.97 466.22 C 585.15 463.10, 585.32 461.24, 585.01 458.08 C 584.71 454.92, 584.01 453.18, 582.45 450.41 C 580.90 447.65, 579.59 446.28, 577.24 444.26 C 574.89 442.24, 573.29 441.39, 570.69 440.30 C 568.09 439.21, 566.40 438.98, 564.24 438.82 C 562.08 438.65, 561.18 439.03, 559.88 439.48 C 558.58 439.92, 558.10 440.43, 557.74 441.05 C 557.39 441.67, 557.65 442.14, 558.11 442.57 C 558.57 442.99, 559.02 442.81, 560.04 443.15 C 561.06 443.50, 561.57 443.74, 563.22 444.29 C 564.86 444.84, 566.24 444.99, 568.28 445.90 C 570.32 446.81, 571.55 447.37, 573.41 448.85 C 575.27 450.34, 576.29 451.36, 577.57 453.33 C 578.85 455.31, 579.46 456.47, 579.80 458.71 C 580.14 460.94, 580.08 462.14, 579.27 464.52 C 578.47 466.90, 577.79 468.30, 575.77 470.60 C 573.76 472.89, 572.30 474.13, 569.20 476.00 C 566.10 477.88, 564.12 478.77, 560.27 479.98 C 556.41 481.19, 553.99 481.70, 549.92 482.05 C 545.86 482.39, 543.52 482.28, 539.94 481.70 C 536.36 481.12, 534.59 480.49, 532.03 479.13 C 529.47 477.76, 528.47 476.81, 527.15 474.86 C 525.82 472.91, 525.46 471.78, 525.40 469.37 C 525.34 466.95, 525.65 465.48, 526.85 462.79 C 528.06 460.10, 529.18 458.42, 531.45 455.89 C 533.72 453.37, 535.36 452.03, 538.20 450.17 C 541.05 448.31, 542.86 447.50, 545.66 446.60 C 548.46 445.70, 549.89 445.68, 552.21 445.68 C 554.52 445.68, 555.51 446.17, 557.23 446.59 C 558.95 447.01, 559.56 447.40, 560.81 447.79 C 562.07 448.18, 562.62 448.74, 563.50 448.54 C 564.39 448.34, 565.18 447.80, 565.24 446.78" style="stroke: black; fill: black;"/><path d="M 617.99,478.70 C 617.21 479.34, 616.94 480.12, 616.40 481.95 C 615.86 483.79, 615.68 485.06, 615.29 487.87 C 614.90 490.68, 614.96 492.60, 614.44 496.00 C 613.92 499.40, 613.52 501.47, 612.69 504.87 C 611.86 508.26, 611.10 510.05, 610.30 512.97 C 609.49 515.90, 609.01 517.35, 608.68 519.49 C 608.34 521.62, 608.51 522.44, 608.62 523.65 C 608.73 524.87, 608.88 525.12, 609.23 525.55 C 609.59 525.98, 609.90 526.03, 610.40 525.80 C 610.90 525.58, 611.06 525.43, 611.72 524.44 C 612.39 523.46, 612.95 522.87, 613.75 520.88 C 614.54 518.88, 614.89 517.41, 615.71 514.47 C 616.52 511.52, 616.94 509.62, 617.83 506.15 C 618.71 502.68, 619.29 500.61, 620.13 497.12 C 620.97 493.63, 621.70 491.66, 622.01 488.68 C 622.32 485.70, 622.03 484.21, 621.68 482.22 C 621.34 480.24, 621.03 479.47, 620.29 478.77 C 619.55 478.06, 618.76 478.06, 617.99 478.70" style="stroke: black; fill: black;"/><path d="M 662.17,396.33 C 661.38 397.00, 660.86 397.72, 660.43 399.81 C 660.00 401.90, 660.01 403.44, 660.01 406.79 C 660.00 410.13, 660.24 412.25, 660.41 416.52 C 660.58 420.78, 660.69 423.37, 660.86 428.11 C 661.03 432.85, 661.10 435.45, 661.25 440.20 C 661.40 444.95, 661.46 447.38, 661.61 451.87 C 661.76 456.37, 661.81 458.70, 662.01 462.68 C 662.21 466.65, 662.25 468.57, 662.60 471.76 C 662.95 474.96, 663.17 476.49, 663.76 478.65 C 664.36 480.81, 664.89 481.46, 665.56 482.58 C 666.23 483.70, 666.55 484.00, 667.12 484.25 C 667.69 484.50, 668.09 484.33, 668.42 483.82 C 668.74 483.32, 668.69 482.95, 668.73 481.72 C 668.76 480.50, 668.87 479.81, 668.61 477.69 C 668.35 475.57, 667.94 474.17, 667.44 471.11 C 666.94 468.04, 666.52 466.24, 666.11 462.36 C 665.69 458.48, 665.60 456.16, 665.37 451.71 C 665.14 447.26, 665.07 444.83, 664.96 440.10 C 664.86 435.37, 664.81 432.77, 664.84 428.05 C 664.88 423.34, 664.93 420.77, 665.13 416.54 C 665.34 412.30, 665.78 410.19, 665.88 406.88 C 665.98 403.57, 665.94 402.06, 665.64 399.98 C 665.34 397.90, 665.08 397.22, 664.39 396.49 C 663.69 395.76, 662.96 395.67, 662.17 396.33" style="stroke: black; fill: black;"/><path d="M 711.56,401.26 C 710.75 401.43, 710.14 401.59, 709.29 402.97 C 708.44 404.35, 707.70 405.37, 707.32 408.17 C 706.95 410.97, 707.44 412.91, 707.42 416.97 C 707.39 421.04, 707.38 423.62, 707.19 428.50 C 706.99 433.38, 706.77 436.14, 706.43 441.37 C 706.09 446.60, 705.87 449.44, 705.48 454.66 C 705.09 459.88, 704.86 462.61, 704.49 467.48 C 704.11 472.35, 703.89 474.92, 703.61 479.01 C 703.33 483.10, 702.99 485.05, 703.09 487.93 C 703.18 490.81, 703.65 491.80, 704.09 493.42 C 704.54 495.03, 704.79 495.51, 705.31 496.00 C 705.82 496.50, 706.25 496.44, 706.68 495.89 C 707.10 495.34, 707.15 494.85, 707.44 493.25 C 707.72 491.65, 708.07 490.69, 708.10 487.87 C 708.13 485.05, 707.61 483.17, 707.58 479.14 C 707.56 475.10, 707.72 472.54, 707.96 467.70 C 708.20 462.85, 708.41 460.12, 708.80 454.91 C 709.19 449.70, 709.43 446.86, 709.91 441.64 C 710.39 436.42, 710.66 433.66, 711.19 428.80 C 711.72 423.95, 711.94 421.34, 712.54 417.37 C 713.14 413.41, 713.92 411.63, 714.18 408.97 C 714.44 406.32, 714.02 405.47, 713.85 404.10 C 713.68 402.72, 713.80 402.67, 713.34 402.11 C 712.89 401.54, 712.37 401.08, 711.56 401.26" style="stroke: black; fill: black;"/><path d="M 694.33,449.03 C 695.29 449.21, 695.89 448.73, 697.58 448.13 C 699.26 447.54, 700.28 447.14, 702.77 446.05 C 705.26 444.96, 706.74 443.82, 710.02 442.69 C 713.30 441.57, 715.42 441.10, 719.17 440.44 C 722.92 439.77, 725.09 439.56, 728.76 439.37 C 732.44 439.18, 734.40 439.22, 737.55 439.48 C 740.70 439.75, 742.11 440.16, 744.53 440.69 C 746.94 441.22, 747.98 441.70, 749.64 442.12 C 751.29 442.54, 751.77 442.62, 752.80 442.80 C 753.82 442.98, 754.19 443.23, 754.75 443.02 C 755.31 442.81, 755.68 442.39, 755.61 441.75 C 755.54 441.12, 755.26 440.66, 754.41 439.83 C 753.57 438.99, 753.14 438.47, 751.39 437.58 C 749.65 436.69, 748.41 435.98, 745.70 435.37 C 742.99 434.77, 741.28 434.68, 737.84 434.56 C 734.40 434.43, 732.38 434.51, 728.50 434.74 C 724.62 434.97, 722.44 435.17, 718.44 435.70 C 714.44 436.23, 712.20 436.53, 708.52 437.38 C 704.83 438.23, 702.79 438.68, 700.02 439.96 C 697.26 441.24, 696.15 442.32, 694.71 443.78 C 693.27 445.24, 692.89 446.20, 692.82 447.25 C 692.74 448.30, 693.38 448.86, 694.33 449.03" style="stroke: black; fill: black;"/><path d="M 770.82,437.00 C 770.20 437.62, 770.15 438.22, 769.98 439.61 C 769.80 440.99, 769.78 441.82, 769.92 443.94 C 770.06 446.06, 770.30 447.52, 770.67 450.20 C 771.04 452.89, 771.42 454.53, 771.77 457.38 C 772.13 460.23, 772.14 461.86, 772.44 464.46 C 772.74 467.06, 772.71 468.43, 773.29 470.38 C 773.87 472.33, 774.27 473.34, 775.34 474.22 C 776.41 475.09, 777.31 475.22, 778.62 474.74 C 779.94 474.25, 780.75 473.64, 781.91 471.79 C 783.07 469.95, 783.39 468.47, 784.42 465.50 C 785.45 462.53, 785.72 460.32, 787.05 456.95 C 788.37 453.58, 789.28 451.67, 791.03 448.66 C 792.78 445.65, 793.87 444.14, 795.80 441.90 C 797.72 439.66, 798.83 438.75, 800.67 437.46 C 802.50 436.16, 803.41 435.76, 804.97 435.42 C 806.54 435.07, 807.21 435.10, 808.51 435.75 C 809.81 436.40, 810.36 437.14, 811.49 438.65 C 812.63 440.15, 813.28 441.19, 814.17 443.28 C 815.05 445.36, 815.36 446.68, 815.91 449.08 C 816.47 451.48, 816.55 452.94, 816.93 455.27 C 817.31 457.60, 817.21 458.90, 817.81 460.71 C 818.40 462.52, 818.77 463.41, 819.91 464.32 C 821.06 465.24, 821.96 465.54, 823.53 465.29 C 825.11 465.04, 826.08 464.56, 827.80 463.05 C 829.52 461.55, 830.25 460.16, 832.14 457.75 C 834.02 455.33, 834.92 453.55, 837.24 450.99 C 839.55 448.42, 840.99 447.00, 843.71 444.93 C 846.43 442.86, 848.05 441.89, 850.82 440.64 C 853.60 439.39, 855.12 439.06, 857.59 438.67 C 860.05 438.28, 861.20 438.25, 863.15 438.68 C 865.10 439.11, 865.93 439.58, 867.35 440.82 C 868.76 442.06, 869.28 442.93, 870.23 444.89 C 871.19 446.85, 871.55 448.13, 872.14 450.62 C 872.74 453.11, 872.83 454.60, 873.22 457.33 C 873.61 460.06, 873.63 461.75, 874.10 464.27 C 874.58 466.79, 874.93 468.13, 875.59 469.94 C 876.25 471.75, 876.66 472.69, 877.41 473.32 C 878.15 473.95, 878.75 473.87, 879.32 473.08 C 879.88 472.29, 880.05 471.28, 880.24 469.36 C 880.44 467.45, 880.47 466.09, 880.31 463.50 C 880.15 460.91, 879.88 459.32, 879.45 456.42 C 879.02 453.52, 879.00 451.88, 878.16 449.01 C 877.32 446.14, 876.76 444.51, 875.25 442.07 C 873.74 439.63, 872.79 438.46, 870.61 436.79 C 868.42 435.12, 867.10 434.40, 864.33 433.70 C 861.56 433.01, 859.88 432.86, 856.76 433.33 C 853.63 433.81, 851.91 434.56, 848.71 436.08 C 845.51 437.60, 843.82 438.71, 840.75 440.91 C 837.68 443.11, 836.13 444.60, 833.36 447.08 C 830.59 449.57, 829.03 451.00, 826.91 453.35 C 824.79 455.71, 823.80 457.05, 822.76 458.86 C 821.72 460.66, 821.77 461.59, 821.69 462.39 C 821.62 463.19, 822.06 463.31, 822.37 462.84 C 822.68 462.37, 823.08 461.70, 823.24 460.03 C 823.41 458.36, 823.39 456.99, 823.18 454.51 C 822.97 452.02, 822.85 450.41, 822.20 447.63 C 821.55 444.85, 821.22 443.17, 819.94 440.60 C 818.66 438.02, 817.73 436.64, 815.80 434.76 C 813.88 432.88, 812.66 432.02, 810.33 431.21 C 808.00 430.40, 806.67 430.33, 804.15 430.70 C 801.63 431.08, 800.19 431.51, 797.74 433.09 C 795.29 434.66, 794.10 435.98, 791.90 438.58 C 789.71 441.18, 788.72 442.88, 786.75 446.10 C 784.78 449.31, 783.81 451.27, 782.05 454.67 C 780.29 458.06, 779.15 460.08, 777.94 463.06 C 776.72 466.04, 776.27 467.55, 775.98 469.57 C 775.68 471.58, 776.05 472.42, 776.47 473.15 C 776.89 473.88, 777.58 473.89, 778.07 473.20 C 778.55 472.51, 778.78 471.55, 778.91 469.70 C 779.03 467.85, 778.79 466.54, 778.68 463.96 C 778.58 461.39, 778.51 459.75, 778.37 456.82 C 778.23 453.88, 778.31 452.10, 777.99 449.29 C 777.67 446.47, 777.37 444.89, 776.77 442.74 C 776.16 440.59, 775.70 439.80, 774.96 438.55 C 774.22 437.30, 773.91 436.80, 773.08 436.49 C 772.25 436.18, 771.44 436.37, 770.82 437.00" style="stroke: black; fill: black;"/><path d="M 1014.17,397.91 C 1013.49 398.63, 1013.20 399.37, 1012.99 401.31 C 1012.78 403.26, 1012.78 404.52, 1013.12 407.63 C 1013.47 410.74, 1014.08 412.82, 1014.71 416.85 C 1015.33 420.88, 1015.70 423.24, 1016.26 427.77 C 1016.81 432.29, 1017.12 434.79, 1017.49 439.49 C 1017.87 444.19, 1017.94 446.70, 1018.13 451.25 C 1018.31 455.80, 1018.39 458.12, 1018.43 462.24 C 1018.47 466.36, 1018.38 468.43, 1018.33 471.84 C 1018.28 475.25, 1018.10 477.01, 1018.19 479.30 C 1018.27 481.58, 1018.46 482.15, 1018.76 483.25 C 1019.07 484.35, 1019.41 484.48, 1019.71 484.78 C 1020.00 485.09, 1020.14 484.72, 1020.24 484.77 C 1020.33 484.82, 1020.02 484.99, 1020.19 485.05 C 1020.36 485.12, 1020.66 485.42, 1021.09 485.10 C 1021.53 484.78, 1021.95 484.60, 1022.38 483.45 C 1022.80 482.29, 1023.10 481.68, 1023.23 479.34 C 1023.35 477.00, 1023.18 475.21, 1023.02 471.76 C 1022.86 468.32, 1022.64 466.25, 1022.41 462.11 C 1022.18 457.97, 1022.09 455.66, 1021.86 451.08 C 1021.62 446.50, 1021.54 443.97, 1021.23 439.22 C 1020.93 434.48, 1020.66 431.95, 1020.34 427.37 C 1020.02 422.80, 1019.84 420.43, 1019.63 416.35 C 1019.43 412.27, 1019.64 410.08, 1019.32 406.97 C 1019.01 403.86, 1018.63 402.66, 1018.05 400.81 C 1017.47 398.97, 1017.19 398.33, 1016.41 397.75 C 1015.64 397.17, 1014.85 397.20, 1014.17 397.91" style="stroke: black; fill: black;"/><path d="M 980.91,397.06 C 981.69 397.36, 981.98 397.13, 983.60 396.80 C 985.22 396.47, 986.05 396.21, 989.02 395.42 C 991.99 394.63, 993.91 393.72, 998.44 392.85 C 1002.97 391.99, 1005.99 391.66, 1011.69 391.09 C 1017.39 390.53, 1020.71 390.33, 1026.92 390.04 C 1033.13 389.74, 1036.58 389.67, 1042.76 389.64 C 1048.93 389.61, 1052.20 389.69, 1057.80 389.88 C 1063.39 390.07, 1066.12 390.19, 1070.73 390.61 C 1075.34 391.02, 1077.49 391.41, 1080.86 391.95 C 1084.22 392.48, 1085.50 393.02, 1087.54 393.30 C 1089.58 393.58, 1090.08 393.38, 1091.04 393.35 C 1091.99 393.32, 1091.98 393.34, 1092.33 393.14 C 1092.67 392.94, 1092.86 392.77, 1092.77 392.33 C 1092.69 391.89, 1092.75 391.61, 1091.89 390.93 C 1091.04 390.26, 1090.60 389.59, 1088.50 388.96 C 1086.40 388.33, 1084.90 388.11, 1081.39 387.77 C 1077.88 387.42, 1075.65 387.42, 1070.94 387.25 C 1066.24 387.08, 1063.51 387.00, 1057.87 386.92 C 1052.23 386.83, 1048.96 386.77, 1042.74 386.80 C 1036.53 386.84, 1033.07 386.90, 1026.81 387.08 C 1020.55 387.26, 1017.23 387.41, 1011.44 387.70 C 1005.64 388.00, 1002.62 388.15, 997.85 388.56 C 993.08 388.96, 990.83 388.94, 987.58 389.72 C 984.34 390.49, 983.20 391.32, 981.63 392.44 C 980.06 393.56, 979.86 394.38, 979.72 395.30 C 979.57 396.23, 980.13 396.76, 980.91 397.06" style="stroke: black; fill: black;"/><path d="M 995.27,441.34 C 995.97 442.08, 996.72 442.50, 998.78 442.80 C 1000.84 443.10, 1002.33 443.16, 1005.57 442.84 C 1008.81 442.52, 1010.89 441.89, 1014.96 441.21 C 1019.03 440.53, 1021.48 440.06, 1025.91 439.45 C 1030.34 438.83, 1032.70 438.57, 1037.09 438.13 C 1041.49 437.69, 1043.97 437.53, 1047.87 437.24 C 1051.77 436.95, 1053.77 437.11, 1056.60 436.66 C 1059.44 436.21, 1060.98 435.73, 1062.04 435.01 C 1063.10 434.30, 1063.07 433.64, 1061.91 433.07 C 1060.76 432.49, 1059.16 432.17, 1056.28 432.14 C 1053.39 432.11, 1051.41 432.51, 1047.49 432.91 C 1043.57 433.31, 1041.09 433.66, 1036.68 434.14 C 1032.26 434.61, 1029.88 434.85, 1025.42 435.29 C 1020.96 435.72, 1018.45 436.01, 1014.37 436.31 C 1010.29 436.61, 1008.18 436.52, 1005.02 436.78 C 1001.86 437.05, 1000.52 437.16, 998.56 437.63 C 996.61 438.09, 995.92 438.36, 995.27 439.10 C 994.61 439.84, 994.57 440.60, 995.27 441.34" style="stroke: black; fill: black;"/><path d="M 1076.54,440.87 C 1075.99 441.68, 1076.08 442.48, 1076.09 444.16 C 1076.11 445.83, 1076.19 446.87, 1076.61 449.25 C 1077.03 451.62, 1077.51 453.18, 1078.18 456.03 C 1078.84 458.89, 1079.39 460.50, 1079.92 463.53 C 1080.46 466.55, 1080.48 468.30, 1080.86 471.15 C 1081.24 474.00, 1081.31 475.62, 1081.83 477.77 C 1082.35 479.93, 1082.66 480.90, 1083.45 481.93 C 1084.23 482.96, 1084.85 483.16, 1085.75 482.94 C 1086.65 482.72, 1087.31 482.23, 1087.94 480.82 C 1088.56 479.42, 1088.76 478.28, 1088.87 475.91 C 1088.98 473.54, 1088.46 471.94, 1088.48 468.96 C 1088.50 465.99, 1088.43 464.18, 1088.98 461.03 C 1089.53 457.87, 1090.01 456.14, 1091.22 453.19 C 1092.44 450.24, 1093.23 448.75, 1095.07 446.25 C 1096.90 443.76, 1098.01 442.60, 1100.42 440.72 C 1102.84 438.83, 1104.26 438.04, 1107.14 436.81 C 1110.01 435.57, 1111.57 435.09, 1114.80 434.53 C 1118.02 433.97, 1119.80 433.86, 1123.26 433.99 C 1126.71 434.12, 1128.83 434.60, 1132.09 435.18 C 1135.34 435.76, 1136.95 436.49, 1139.53 436.89 C 1142.11 437.29, 1143.77 437.52, 1144.99 437.17 C 1146.22 436.82, 1146.48 436.17, 1145.65 435.16 C 1144.82 434.14, 1143.39 433.10, 1140.85 432.09 C 1138.31 431.08, 1136.45 430.68, 1132.96 430.10 C 1129.46 429.52, 1127.17 429.24, 1123.38 429.19 C 1119.58 429.14, 1117.61 429.22, 1113.98 429.85 C 1110.35 430.49, 1108.55 430.96, 1105.24 432.36 C 1101.93 433.77, 1100.24 434.68, 1097.43 436.88 C 1094.61 439.07, 1093.31 440.46, 1091.15 443.33 C 1088.99 446.19, 1088.12 447.89, 1086.62 451.19 C 1085.12 454.49, 1084.59 456.37, 1083.65 459.82 C 1082.70 463.27, 1082.36 465.20, 1081.88 468.44 C 1081.41 471.67, 1081.11 473.47, 1081.28 476.01 C 1081.45 478.55, 1081.96 479.75, 1082.75 481.13 C 1083.53 482.51, 1084.34 482.85, 1085.22 482.91 C 1086.10 482.97, 1086.67 482.59, 1087.15 481.42 C 1087.63 480.24, 1087.66 479.25, 1087.61 477.04 C 1087.57 474.83, 1087.30 473.26, 1086.95 470.37 C 1086.59 467.48, 1086.27 465.71, 1085.83 462.59 C 1085.38 459.46, 1085.22 457.71, 1084.72 454.73 C 1084.23 451.75, 1084.04 450.07, 1083.33 447.66 C 1082.62 445.26, 1082.09 444.20, 1081.18 442.69 C 1080.28 441.18, 1079.75 440.49, 1078.82 440.13 C 1077.89 439.76, 1077.08 440.07, 1076.54 440.87" style="stroke: black; fill: black;"/><path d="M 1187.99,446.20 C 1188.04 445.24, 1187.73 444.43, 1186.66 443.22 C 1185.59 442.00, 1184.77 441.10, 1182.62 440.13 C 1180.48 439.16, 1178.88 438.53, 1175.92 438.39 C 1172.96 438.25, 1171.25 438.54, 1167.83 439.42 C 1164.42 440.30, 1162.45 441.04, 1158.85 442.79 C 1155.25 444.54, 1153.15 445.73, 1149.82 448.17 C 1146.48 450.61, 1144.74 452.15, 1142.19 454.99 C 1139.63 457.83, 1138.27 459.41, 1137.04 462.37 C 1135.82 465.32, 1135.67 467.04, 1136.05 469.75 C 1136.44 472.46, 1137.16 473.84, 1138.97 475.90 C 1140.78 477.96, 1142.19 479.04, 1145.10 480.03 C 1148.01 481.02, 1149.95 481.04, 1153.52 480.85 C 1157.09 480.66, 1159.18 480.19, 1162.94 479.08 C 1166.69 477.96, 1168.67 477.18, 1172.29 475.25 C 1175.91 473.33, 1177.79 471.95, 1181.02 469.46 C 1184.25 466.98, 1185.83 465.53, 1188.44 462.83 C 1191.05 460.12, 1192.41 458.56, 1194.08 455.94 C 1195.76 453.33, 1196.40 451.63, 1196.81 449.75 C 1197.22 447.87, 1196.70 446.93, 1196.14 446.53 C 1195.58 446.14, 1194.72 446.49, 1194.02 447.76 C 1193.32 449.03, 1192.69 450.34, 1192.64 452.88 C 1192.60 455.42, 1193.09 457.40, 1193.77 460.48 C 1194.46 463.55, 1195.02 465.32, 1196.08 468.25 C 1197.13 471.18, 1197.70 472.70, 1199.03 475.14 C 1200.37 477.57, 1201.19 478.75, 1202.73 480.43 C 1204.27 482.12, 1205.27 482.80, 1206.74 483.57 C 1208.20 484.35, 1209.01 484.31, 1210.05 484.29 C 1211.08 484.27, 1211.53 483.93, 1211.91 483.48 C 1212.28 483.02, 1212.10 482.48, 1211.92 482.02 C 1211.74 481.56, 1211.48 481.65, 1211.01 481.17 C 1210.53 480.68, 1210.36 480.45, 1209.54 479.60 C 1208.72 478.76, 1207.95 478.37, 1206.89 476.95 C 1205.82 475.53, 1205.18 474.63, 1204.22 472.52 C 1203.27 470.41, 1202.76 469.08, 1202.10 466.41 C 1201.43 463.73, 1201.31 462.02, 1200.90 459.16 C 1200.50 456.30, 1200.62 454.45, 1200.06 452.10 C 1199.49 449.76, 1199.02 448.70, 1198.10 447.41 C 1197.18 446.13, 1196.57 445.64, 1195.46 445.69 C 1194.34 445.74, 1193.74 446.22, 1192.53 447.67 C 1191.33 449.13, 1190.93 450.58, 1189.42 452.98 C 1187.91 455.38, 1187.21 457.07, 1184.98 459.67 C 1182.76 462.27, 1181.26 463.65, 1178.31 465.97 C 1175.35 468.28, 1173.54 469.57, 1170.21 471.24 C 1166.88 472.92, 1165.03 473.54, 1161.65 474.36 C 1158.28 475.18, 1156.31 475.31, 1153.33 475.34 C 1150.36 475.37, 1148.97 475.08, 1146.79 474.51 C 1144.61 473.95, 1143.67 473.57, 1142.42 472.51 C 1141.17 471.45, 1140.66 470.83, 1140.54 469.23 C 1140.42 467.62, 1140.79 466.69, 1141.84 464.48 C 1142.88 462.26, 1143.64 460.66, 1145.78 458.15 C 1147.93 455.65, 1149.54 454.13, 1152.56 451.95 C 1155.59 449.77, 1157.61 448.66, 1160.90 447.26 C 1164.19 445.86, 1166.10 445.40, 1169.00 444.94 C 1171.90 444.48, 1173.17 444.69, 1175.41 444.95 C 1177.65 445.22, 1178.56 445.74, 1180.22 446.26 C 1181.88 446.79, 1182.45 447.22, 1183.69 447.58 C 1184.93 447.94, 1185.55 448.33, 1186.41 448.05 C 1187.26 447.78, 1187.93 447.17, 1187.99 446.20" style="stroke: black; fill: black;"/><path d="M 1221.29,448.84 C 1220.74 449.62, 1220.84 450.37, 1220.80 451.99 C 1220.75 453.60, 1220.80 454.63, 1221.08 456.89 C 1221.36 459.15, 1221.73 460.76, 1222.19 463.29 C 1222.65 465.83, 1222.94 467.26, 1223.37 469.57 C 1223.80 471.88, 1223.71 473.19, 1224.35 474.85 C 1224.99 476.51, 1225.50 477.26, 1226.57 477.87 C 1227.64 478.48, 1228.45 478.53, 1229.70 477.89 C 1230.94 477.25, 1231.69 476.53, 1232.80 474.66 C 1233.91 472.79, 1234.22 471.23, 1235.24 468.54 C 1236.27 465.84, 1236.50 463.94, 1237.92 461.20 C 1239.33 458.47, 1240.34 457.04, 1242.32 454.84 C 1244.29 452.65, 1245.53 451.69, 1247.79 450.22 C 1250.05 448.74, 1251.28 448.16, 1253.60 447.47 C 1255.93 446.78, 1257.17 446.65, 1259.41 446.77 C 1261.66 446.89, 1262.84 447.18, 1264.81 448.08 C 1266.79 448.98, 1267.65 449.59, 1269.29 451.28 C 1270.92 452.97, 1271.72 454.21, 1272.99 456.54 C 1274.27 458.86, 1274.78 460.22, 1275.64 462.91 C 1276.51 465.60, 1276.66 467.24, 1277.32 470.00 C 1277.97 472.75, 1278.22 474.25, 1278.90 476.66 C 1279.59 479.08, 1279.93 480.31, 1280.74 482.08 C 1281.55 483.85, 1282.09 484.56, 1282.97 485.52 C 1283.85 486.47, 1284.44 486.78, 1285.15 486.87 C 1285.86 486.95, 1286.27 486.55, 1286.50 485.94 C 1286.74 485.34, 1286.47 484.95, 1286.33 483.84 C 1286.18 482.73, 1286.11 482.14, 1285.77 480.41 C 1285.42 478.69, 1285.12 477.58, 1284.59 475.22 C 1284.06 472.86, 1283.82 471.43, 1283.13 468.60 C 1282.44 465.77, 1282.16 464.07, 1281.16 461.09 C 1280.16 458.11, 1279.67 456.48, 1278.11 453.70 C 1276.56 450.92, 1275.57 449.31, 1273.36 447.18 C 1271.15 445.04, 1269.79 444.23, 1267.06 443.04 C 1264.34 441.84, 1262.74 441.40, 1259.73 441.22 C 1256.72 441.04, 1254.98 441.24, 1252.00 442.14 C 1249.02 443.04, 1247.56 443.91, 1244.83 445.72 C 1242.10 447.53, 1240.77 448.68, 1238.38 451.17 C 1235.98 453.66, 1234.86 455.27, 1232.87 458.16 C 1230.89 461.05, 1229.78 462.80, 1228.45 465.63 C 1227.11 468.45, 1226.55 470.12, 1226.20 472.28 C 1225.86 474.44, 1226.25 475.49, 1226.72 476.44 C 1227.19 477.38, 1227.93 477.45, 1228.55 477.02 C 1229.17 476.58, 1229.53 475.89, 1229.81 474.25 C 1230.09 472.62, 1230.02 471.29, 1229.95 468.86 C 1229.88 466.44, 1229.82 464.83, 1229.45 462.13 C 1229.07 459.44, 1228.76 457.72, 1228.06 455.40 C 1227.36 453.08, 1226.84 452.01, 1225.94 450.55 C 1225.04 449.08, 1224.49 448.42, 1223.56 448.08 C 1222.63 447.74, 1221.84 448.06, 1221.29 448.84" style="stroke: black; fill: black;"/><path d="M 1341.07,449.21 C 1340.94 448.23, 1340.46 447.40, 1339.13 446.43 C 1337.81 445.45, 1336.79 444.81, 1334.46 444.33 C 1332.13 443.86, 1330.47 443.53, 1327.48 444.06 C 1324.49 444.59, 1322.77 445.46, 1319.50 446.99 C 1316.23 448.53, 1314.33 449.54, 1311.13 451.73 C 1307.92 453.92, 1306.13 455.27, 1303.47 457.95 C 1300.82 460.63, 1299.31 462.14, 1297.84 465.15 C 1296.37 468.16, 1295.95 469.98, 1296.11 473.01 C 1296.27 476.05, 1296.80 477.78, 1298.63 480.34 C 1300.47 482.91, 1302.03 484.12, 1305.29 485.83 C 1308.56 487.55, 1310.77 488.14, 1314.95 488.92 C 1319.13 489.69, 1321.59 489.73, 1326.21 489.71 C 1330.83 489.70, 1333.36 489.48, 1338.04 488.83 C 1342.73 488.19, 1345.28 487.66, 1349.64 486.48 C 1354.00 485.30, 1356.19 484.44, 1359.85 482.95 C 1363.51 481.46, 1365.42 480.56, 1367.94 479.03 C 1370.47 477.50, 1371.16 476.56, 1372.47 475.30 C 1373.79 474.04, 1374.11 473.55, 1374.53 472.73 C 1374.96 471.90, 1374.67 471.55, 1374.59 471.17 C 1374.51 470.79, 1374.17 470.94, 1374.11 470.84 C 1374.05 470.75, 1374.38 470.82, 1374.30 470.69 C 1374.21 470.56, 1374.08 470.26, 1373.67 470.19 C 1373.26 470.12, 1373.02 470.01, 1372.24 470.34 C 1371.46 470.67, 1371.20 470.98, 1369.79 471.82 C 1368.39 472.67, 1367.55 473.11, 1365.21 474.55 C 1362.87 475.99, 1361.41 477.37, 1358.09 479.01 C 1354.76 480.65, 1352.70 481.54, 1348.59 482.74 C 1344.48 483.95, 1342.00 484.46, 1337.53 485.04 C 1333.06 485.62, 1330.59 485.77, 1326.25 485.66 C 1321.92 485.55, 1319.58 485.35, 1315.86 484.49 C 1312.15 483.64, 1310.30 482.83, 1307.68 481.38 C 1305.06 479.94, 1304.10 479.00, 1302.75 477.28 C 1301.39 475.56, 1300.98 474.76, 1300.92 472.80 C 1300.86 470.85, 1301.23 469.77, 1302.45 467.50 C 1303.67 465.24, 1304.72 463.78, 1307.02 461.47 C 1309.31 459.17, 1310.99 457.84, 1313.93 455.99 C 1316.86 454.13, 1318.77 453.27, 1321.69 452.21 C 1324.61 451.15, 1326.15 450.99, 1328.52 450.68 C 1330.89 450.37, 1331.83 450.57, 1333.54 450.68 C 1335.25 450.79, 1335.82 451.10, 1337.07 451.23 C 1338.31 451.36, 1338.96 451.72, 1339.76 451.31 C 1340.56 450.91, 1341.19 450.19, 1341.07 449.21" style="stroke: black; fill: black;"/><path d="M 1383.61,451.09 C 1382.98 451.72, 1382.87 452.28, 1382.67 453.73 C 1382.48 455.19, 1382.43 456.20, 1382.64 458.37 C 1382.84 460.54, 1383.20 461.99, 1383.71 464.57 C 1384.22 467.15, 1384.57 468.64, 1385.19 471.25 C 1385.80 473.86, 1386.11 475.34, 1386.79 477.61 C 1387.47 479.88, 1387.93 481.00, 1388.60 482.60 C 1389.27 484.19, 1389.50 484.76, 1390.12 485.58 C 1390.74 486.41, 1391.05 486.55, 1391.70 486.72 C 1392.35 486.88, 1392.91 486.63, 1393.37 486.41 C 1393.84 486.19, 1394.38 485.76, 1394.01 485.63 C 1393.65 485.50, 1391.89 485.65, 1391.54 485.77 C 1391.18 485.90, 1391.82 486.26, 1392.25 486.25 C 1392.68 486.24, 1393.34 486.13, 1393.70 485.72 C 1394.07 485.31, 1394.06 485.13, 1394.07 484.20 C 1394.08 483.28, 1394.01 482.70, 1393.74 481.09 C 1393.47 479.49, 1393.13 478.39, 1392.72 476.17 C 1392.32 473.96, 1392.08 472.59, 1391.72 470.02 C 1391.36 467.44, 1391.32 465.89, 1390.91 463.29 C 1390.50 460.69, 1390.29 459.14, 1389.67 457.01 C 1389.04 454.88, 1388.57 453.94, 1387.80 452.65 C 1387.03 451.37, 1386.66 450.91, 1385.82 450.60 C 1384.98 450.29, 1384.24 450.47, 1383.61 451.09" style="stroke: black; fill: black;"/><path d="M 1381.55,419.90 C 1382.38 419.40, 1382.94 418.73, 1382.98 418.62 C 1383.02 418.51, 1382.24 419.12, 1381.75 419.33 C 1381.26 419.54, 1381.00 419.88, 1380.53 419.65 C 1380.06 419.43, 1379.98 418.33, 1379.39 418.20 C 1378.79 418.07, 1378.08 418.42, 1377.56 419.00 C 1377.04 419.57, 1376.54 420.64, 1376.79 421.07 C 1377.05 421.49, 1377.88 421.37, 1378.83 421.13 C 1379.78 420.90, 1380.72 420.40, 1381.55 419.90" style="stroke: black; fill: black;"/><path d="M 1459.15,444.66 C 1458.76 443.77, 1458.21 443.15, 1456.56 442.41 C 1454.92 441.66, 1453.67 441.11, 1450.93 440.92 C 1448.20 440.73, 1446.28 440.98, 1442.90 441.45 C 1439.53 441.93, 1437.52 442.48, 1434.06 443.30 C 1430.61 444.11, 1428.59 444.41, 1425.63 445.53 C 1422.67 446.64, 1421.10 447.28, 1419.26 448.88 C 1417.43 450.48, 1416.72 451.57, 1416.45 453.53 C 1416.17 455.49, 1416.40 456.75, 1417.88 458.66 C 1419.36 460.57, 1420.77 461.47, 1423.85 463.08 C 1426.94 464.70, 1429.21 465.22, 1433.31 466.74 C 1437.42 468.26, 1439.97 469.04, 1444.38 470.68 C 1448.78 472.33, 1451.31 473.21, 1455.33 474.96 C 1459.34 476.70, 1461.43 477.73, 1464.44 479.41 C 1467.46 481.08, 1468.69 482.06, 1470.39 483.33 C 1472.09 484.60, 1472.66 484.90, 1472.95 485.76 C 1473.23 486.63, 1472.92 486.86, 1471.80 487.65 C 1470.69 488.43, 1469.65 488.64, 1467.38 489.71 C 1465.11 490.77, 1463.70 491.77, 1460.45 492.96 C 1457.20 494.16, 1455.06 494.79, 1451.11 495.69 C 1447.16 496.58, 1444.84 496.95, 1440.71 497.44 C 1436.58 497.92, 1434.30 498.05, 1430.47 498.11 C 1426.64 498.17, 1424.68 497.97, 1421.56 497.75 C 1418.44 497.52, 1417.04 497.19, 1414.85 496.98 C 1412.66 496.76, 1411.89 496.72, 1410.61 496.67 C 1409.33 496.62, 1408.99 496.48, 1408.44 496.74 C 1407.88 497.00, 1407.62 497.35, 1407.83 497.98 C 1408.05 498.62, 1408.27 499.12, 1409.50 499.93 C 1410.74 500.74, 1411.64 501.48, 1414.01 502.03 C 1416.37 502.58, 1418.00 502.59, 1421.32 502.68 C 1424.64 502.77, 1426.64 502.67, 1430.62 502.47 C 1434.59 502.27, 1436.91 502.14, 1441.19 501.68 C 1445.46 501.22, 1447.83 500.90, 1452.00 500.18 C 1456.18 499.46, 1458.40 499.06, 1462.06 498.08 C 1465.72 497.10, 1467.66 496.80, 1470.31 495.28 C 1472.95 493.76, 1474.06 492.54, 1475.28 490.49 C 1476.49 488.44, 1476.73 487.16, 1476.37 485.03 C 1476.00 482.89, 1475.42 481.72, 1473.45 479.81 C 1471.49 477.90, 1469.87 477.17, 1466.56 475.46 C 1463.24 473.75, 1461.04 472.97, 1456.90 471.25 C 1452.76 469.54, 1450.22 468.65, 1445.87 466.87 C 1441.51 465.09, 1439.00 464.15, 1435.13 462.36 C 1431.26 460.58, 1429.32 459.38, 1426.52 457.94 C 1423.72 456.50, 1422.53 455.95, 1421.12 455.17 C 1419.72 454.40, 1419.34 454.51, 1419.49 454.07 C 1419.64 453.64, 1420.27 453.58, 1421.88 452.98 C 1423.49 452.39, 1424.87 451.92, 1427.55 451.08 C 1430.23 450.25, 1432.10 449.48, 1435.30 448.81 C 1438.49 448.13, 1440.45 447.89, 1443.54 447.72 C 1446.62 447.54, 1448.30 447.97, 1450.74 447.92 C 1453.17 447.88, 1454.17 447.71, 1455.72 447.49 C 1457.28 447.27, 1457.83 447.40, 1458.51 446.83 C 1459.20 446.26, 1459.54 445.54, 1459.15 444.66" style="stroke: black; fill: black;"/></svg>